<svg width="249" height="336" viewBox="0 0 249 336" fill="none" xmlns="http://www.w3.org/2000/svg">
<path d="M181.864 217.642C179.324 217.642 176.887 216.691 175.09 214.998C173.294 213.305 172.285 211.008 172.285 208.613V131.406C172.083 127.382 171.986 108.8 171.958 100.654C171.958 83.8191 166.315 67.285 155.638 52.8185L133.022 22.2498C132.062 20.9566 130.785 19.9008 129.3 19.1718C127.815 18.4428 126.165 18.0621 124.491 18.0621C122.816 18.0621 121.166 18.4428 119.681 19.1718C118.196 19.9008 116.919 20.9566 115.959 22.2498L93.3779 52.8774C82.7016 67.3505 77.044 83.878 77.044 100.68C77.044 108.826 76.9191 127.408 76.7178 131.432V208.639C76.7178 211.034 75.7085 213.331 73.912 215.024C72.1155 216.717 69.6789 217.669 67.1382 217.669C64.5975 217.669 62.1609 216.717 60.3644 215.024C58.5679 213.331 57.5586 211.034 57.5586 208.639V131.203C57.5586 130.948 57.5586 130.699 57.5586 130.451C57.6835 128.54 57.8085 111.862 57.8501 100.648C57.8501 80.1747 64.6808 60.0812 77.5994 42.5657L100.229 11.9511C102.951 8.26243 106.579 5.24899 110.803 3.16794C115.028 1.08689 119.724 0 124.491 0C129.258 0 133.954 1.08689 138.178 3.16794C142.403 5.24899 146.031 8.26243 148.752 11.9511L171.334 42.5592C184.252 60.0747 191.076 80.1681 191.076 100.674C191.124 111.856 191.243 128.534 191.374 130.503C191.399 130.721 191.41 130.939 191.409 131.157V208.613C191.407 211.002 190.402 213.292 188.614 214.984C186.825 216.676 184.398 217.632 181.864 217.642V217.642Z" fill="#1A1A1A"/>
<path d="M124.49 126.839C116.982 126.843 109.641 124.748 103.396 120.819C97.1515 116.89 92.2832 111.304 89.4071 104.767C86.531 98.2299 85.7763 91.0358 87.2385 84.0944C88.7008 77.1531 92.3142 70.7764 97.6218 65.7709C102.929 60.7655 109.693 57.3561 117.056 55.9741C124.42 54.592 132.053 55.2994 138.99 58.0067C145.927 60.7139 151.856 65.2996 156.028 71.1835C160.2 77.0674 162.427 83.9853 162.427 91.0621C162.416 100.544 158.416 109.635 151.304 116.342C144.193 123.049 134.55 126.823 124.49 126.839V126.839ZM124.49 73.3438C120.77 73.3438 117.134 74.3835 114.042 76.3314C110.949 78.2793 108.539 81.048 107.116 84.2871C105.692 87.5263 105.32 91.0906 106.047 94.529C106.773 97.9675 108.565 101.126 111.195 103.604C113.826 106.083 117.177 107.771 120.826 108.454C124.474 109.137 128.255 108.785 131.691 107.442C135.127 106.1 138.064 103.827 140.129 100.911C142.195 97.9956 143.296 94.568 143.295 91.0621C143.288 86.3639 141.304 81.8602 137.779 78.5387C134.253 75.2172 129.475 73.3489 124.49 73.3438V73.3438Z" fill="#1A1A1A"/>
<path d="M185.098 257.829H153.222C150.681 257.829 148.245 256.878 146.448 255.185C144.652 253.492 143.642 251.195 143.642 248.8C143.642 246.405 144.652 244.109 146.448 242.416C148.245 240.722 150.681 239.771 153.222 239.771H185.098C186.939 239.771 188.705 239.082 190.007 237.855C191.309 236.627 192.04 234.963 192.04 233.228C192.04 231.493 191.309 229.828 190.007 228.601C188.705 227.374 186.939 226.685 185.098 226.685H63.854C62.0129 226.685 60.2472 227.374 58.9454 228.601C57.6436 229.828 56.9122 231.493 56.9122 233.228C56.9122 234.963 57.6436 236.627 58.9454 237.855C60.2472 239.082 62.0129 239.771 63.854 239.771H95.7859C98.3266 239.771 100.763 240.722 102.56 242.416C104.356 244.109 105.366 246.405 105.366 248.8C105.366 251.195 104.356 253.492 102.56 255.185C100.763 256.878 98.3266 257.829 95.7859 257.829H63.854C56.9297 257.829 50.2891 255.237 45.3929 250.622C40.4967 246.007 37.7461 239.748 37.7461 233.221C37.7461 226.695 40.4967 220.436 45.3929 215.821C50.2891 211.206 56.9297 208.613 63.854 208.613H185.098C192.023 208.613 198.663 211.206 203.559 215.821C208.455 220.436 211.206 226.695 211.206 233.221C211.206 239.748 208.455 246.007 203.559 250.622C198.663 255.237 192.023 257.829 185.098 257.829V257.829Z" fill="#1A1A1A"/>
<path d="M124.331 335.004C119.974 335.01 115.709 333.818 112.058 331.576C100.563 324.516 86.5268 312.679 84.9371 296.348C84.5937 292.484 84.7335 288.594 85.3536 284.761C86.2144 279.349 89.0987 274.405 93.4864 270.821C97.874 267.238 103.476 265.25 109.282 265.217H139.721C145.556 265.25 151.184 267.257 155.579 270.873C159.975 274.489 162.847 279.473 163.67 284.918C164.29 288.878 164.393 292.895 163.976 296.878C162.143 313.19 147.933 324.836 136.334 331.733C132.742 333.871 128.58 335.006 124.331 335.004V335.004ZM109.282 283.275C108.067 283.276 106.893 283.693 105.979 284.447C105.065 285.201 104.473 286.243 104.311 287.378C103.905 289.799 103.805 292.256 104.013 294.699C104.985 304.671 117.272 313.229 122.506 316.442C123.051 316.771 123.684 316.946 124.331 316.946V316.946C124.96 316.948 125.576 316.782 126.109 316.468C131.391 313.321 143.803 304.939 144.928 294.974C145.178 292.46 145.101 289.927 144.698 287.43C144.548 286.285 143.959 285.231 143.043 284.466C142.127 283.701 140.945 283.278 139.721 283.275H109.282Z" fill="#1A1A1A"/>
<path d="M181.864 226.672H67.1523C64.6177 226.663 62.19 225.708 60.4009 224.016C58.6119 222.324 57.6074 220.032 57.6074 217.643V181.532C57.6074 179.138 58.6167 176.841 60.4132 175.148C62.2097 173.454 64.6464 172.503 67.187 172.503H181.864C184.405 172.503 186.842 173.454 188.638 175.148C190.435 176.841 191.444 179.138 191.444 181.532V217.643C191.442 220.037 190.432 222.333 188.636 224.026C186.84 225.719 184.405 226.67 181.864 226.672ZM76.7666 208.614H172.285V190.555H76.7319L76.7666 208.614Z" fill="#1A1A1A"/>
<path d="M223.112 217.642C221.217 217.643 219.365 217.114 217.789 216.121C216.213 215.129 214.985 213.719 214.259 212.069C213.534 210.419 213.344 208.603 213.714 206.851C214.084 205.099 214.997 203.49 216.337 202.227L229.221 190.09L174.381 123.888C172.816 122 172.111 119.604 172.421 117.226C172.731 114.848 174.03 112.683 176.033 111.208C178.036 109.733 180.579 109.068 183.102 109.36C185.625 109.652 187.922 110.877 189.486 112.765L244.916 179.719C247.688 182.846 249.122 186.836 248.937 190.907C248.752 194.978 246.962 198.838 243.917 201.73L229.853 214.986C228.969 215.824 227.919 216.49 226.763 216.946C225.606 217.402 224.366 217.638 223.112 217.642V217.642Z" fill="#1A1A1A"/>
<path d="M25.8686 217.643C23.3315 217.651 20.8946 216.71 19.0935 215.026L5.03646 201.744C1.99114 198.851 0.20078 194.992 0.0158906 190.921C-0.168999 186.85 1.26489 182.86 4.03685 179.733L59.4666 112.779C61.0315 110.891 63.328 109.666 65.851 109.374C68.3739 109.082 70.9166 109.747 72.9197 111.222C74.9227 112.697 76.2221 114.861 76.532 117.239C76.8418 119.617 76.1367 122.014 74.5718 123.902L19.7321 190.104L32.616 202.234C33.9539 203.497 34.8646 205.106 35.233 206.857C35.6015 208.607 35.4113 210.422 34.6863 212.071C33.9613 213.719 32.7341 215.129 31.1597 216.121C29.5854 217.112 27.7345 217.642 25.8408 217.643H25.8686Z" fill="#1A1A1A"/>
</svg>
