<svg width="300" height="361" viewBox="0 0 300 361" fill="none" xmlns="http://www.w3.org/2000/svg">
<path d="M149.808 126.944C168.667 126.944 183.956 114.039 183.956 98.1209C183.956 82.2024 168.667 69.2979 149.808 69.2979C130.948 69.2979 115.659 82.2024 115.659 98.1209C115.659 114.039 130.948 126.944 149.808 126.944Z" fill="#4285F4"/>
<path d="M149.808 136.681C140.773 136.685 131.939 134.428 124.425 130.194C116.91 125.96 111.052 119.941 107.591 112.896C104.13 105.852 103.221 98.0997 104.981 90.6198C106.741 83.1399 111.089 76.2684 117.476 70.8746C123.863 65.4807 132.001 61.8068 140.862 60.3175C149.723 58.8283 158.909 59.5905 167.256 62.5079C175.604 65.4252 182.739 70.3666 187.759 76.7071C192.779 83.0475 195.459 90.5022 195.459 98.1281C195.445 108.346 190.632 118.142 182.075 125.369C173.517 132.596 161.913 136.664 149.808 136.681ZM149.808 79.035C145.332 79.035 140.956 80.1554 137.235 82.2544C133.513 84.3535 130.613 87.337 128.9 90.8275C127.188 94.318 126.74 98.1588 127.614 101.864C128.488 105.569 130.644 108.973 133.809 111.644C136.975 114.315 141.008 116.133 145.398 116.869C149.788 117.605 154.338 117.226 158.473 115.779C162.608 114.333 166.142 111.884 168.627 108.742C171.113 105.6 172.438 101.906 172.437 98.1281C172.428 93.0654 170.041 88.2123 165.799 84.633C161.556 81.0538 155.806 79.0406 149.808 79.035Z" fill="#1A1A1A"/>
<path d="M218.846 234.53C215.789 234.53 212.857 233.505 210.695 231.68C208.533 229.855 207.318 227.38 207.318 224.8V141.602C207.076 137.266 206.959 117.242 206.926 108.464C206.926 90.3228 200.134 72.5058 187.287 56.9168L160.072 23.9762C158.917 22.5827 157.38 21.4449 155.593 20.6593C153.806 19.8738 151.821 19.4636 149.806 19.4636C147.791 19.4636 145.805 19.8738 144.018 20.6593C142.231 21.4449 140.695 22.5827 139.539 23.9762L112.366 56.9803C99.5185 72.5763 92.7105 90.3862 92.7105 108.492C92.7105 117.27 92.5602 137.294 92.3179 141.63V224.828C92.3179 227.408 91.1034 229.883 88.9416 231.708C86.7797 233.533 83.8476 234.558 80.7903 234.558C77.733 234.558 74.8009 233.533 72.6391 231.708C70.4772 229.883 69.2627 227.408 69.2627 224.828V141.384C69.2627 141.109 69.2627 140.841 69.2627 140.573C69.4131 138.514 69.5634 120.542 69.6135 108.457C69.6135 86.3956 77.8332 64.743 93.3788 45.8684L120.611 12.8785C123.886 8.90352 128.251 5.65627 133.335 3.41375C138.419 1.17122 144.069 0 149.806 0C155.542 0 161.193 1.17122 166.276 3.41375C171.36 5.65627 175.726 8.90352 179.001 12.8785L206.174 45.8614C221.719 64.736 229.931 86.3885 229.931 108.485C229.989 120.535 230.131 138.507 230.29 140.629C230.319 140.863 230.333 141.099 230.332 141.334V224.8C230.33 227.374 229.12 229.842 226.968 231.665C224.815 233.489 221.895 234.518 218.846 234.53Z" fill="#1A1A1A"/>
<path d="M222.741 277.836H184.383C181.325 277.836 178.393 276.811 176.231 274.986C174.07 273.161 172.855 270.686 172.855 268.106C172.855 265.525 174.07 263.05 176.231 261.226C178.393 259.401 181.325 258.376 184.383 258.376H222.741C224.957 258.376 227.081 257.633 228.648 256.311C230.214 254.989 231.094 253.195 231.094 251.325C231.094 249.455 230.214 247.662 228.648 246.34C227.081 245.018 224.957 244.275 222.741 244.275H76.8417C74.6263 244.275 72.5016 245.018 70.935 246.34C69.3685 247.662 68.4884 249.455 68.4884 251.325C68.4884 253.195 69.3685 254.989 70.935 256.311C72.5016 257.633 74.6263 258.376 76.8417 258.376H115.267C118.324 258.376 121.256 259.401 123.418 261.226C125.58 263.05 126.795 265.525 126.795 268.106C126.795 270.686 125.58 273.161 123.418 274.986C121.256 276.811 118.324 277.836 115.267 277.836H76.8417C68.5094 277.836 60.5184 275.042 54.6266 270.069C48.7348 265.096 45.4248 258.351 45.4248 251.318C45.4248 244.285 48.7348 237.541 54.6266 232.568C60.5184 227.595 68.5094 224.801 76.8417 224.801H222.741C231.073 224.801 239.064 227.595 244.956 232.568C250.848 237.541 254.158 244.285 254.158 251.318C254.158 258.351 250.848 265.096 244.956 270.069C239.064 275.042 231.073 277.836 222.741 277.836Z" fill="#1A1A1A"/>
<path d="M131.5 295.524C127.272 295.53 123.187 296.821 119.993 299.161C116.8 301.5 114.711 304.732 114.109 308.265C113.494 311.635 113.351 315.055 113.683 318.453C115.237 332.738 131.041 343.603 141.124 349.145C143.615 350.513 146.519 351.249 149.492 351.268C152.464 351.287 155.381 350.587 157.897 349.25C168.08 343.828 184.06 333.154 185.856 318.883C186.257 315.384 186.15 311.856 185.538 308.378C184.96 304.824 182.88 301.566 179.681 299.204C176.482 296.842 172.38 295.535 168.13 295.524H131.5Z" fill="#EF5350"/>
<path d="M149.613 361C144.369 361.006 139.237 359.722 134.844 357.306C121.011 349.698 104.121 336.943 102.208 319.345C101.794 315.18 101.963 310.989 102.709 306.858C103.745 301.026 107.216 295.699 112.496 291.837C117.775 287.976 124.517 285.834 131.503 285.798H168.132C175.153 285.833 181.925 287.996 187.215 291.893C192.505 295.79 195.96 301.161 196.951 307.027C197.697 311.295 197.821 315.623 197.319 319.916C195.114 337.493 178.014 350.043 164.056 357.475C159.734 359.779 154.725 361.002 149.613 361ZM131.503 305.258C130.041 305.259 128.629 305.707 127.529 306.52C126.429 307.333 125.716 308.455 125.522 309.678C125.033 312.287 124.912 314.935 125.163 317.568C126.332 328.313 141.118 337.536 147.416 340.997C148.072 341.352 148.834 341.541 149.613 341.54C150.369 341.543 151.111 341.364 151.751 341.026C158.108 337.634 173.044 328.602 174.397 317.864C174.699 315.155 174.606 312.425 174.122 309.735C173.941 308.501 173.232 307.365 172.129 306.541C171.027 305.717 169.605 305.26 168.132 305.258H131.503Z" fill="#1A1A1A"/>
<path d="M218.842 244.258H80.8032C77.7532 244.249 74.8318 243.22 72.679 241.396C70.5261 239.572 69.3174 237.103 69.3174 234.528V195.616C69.3174 193.035 70.5319 190.56 72.6937 188.736C74.8556 186.911 77.7877 185.886 80.845 185.886H218.842C221.899 185.886 224.832 186.911 226.993 188.736C229.155 190.56 230.37 193.035 230.37 195.616V234.528C230.368 237.108 229.152 239.582 226.991 241.406C224.83 243.23 221.899 244.256 218.842 244.258ZM92.3726 224.798H207.315V205.338H92.3308L92.3726 224.798Z" fill="#1A1A1A"/>
<path d="M268.481 234.53C266.2 234.53 263.971 233.96 262.075 232.891C260.178 231.822 258.7 230.302 257.828 228.524C256.955 226.746 256.727 224.789 257.172 222.901C257.617 221.013 258.715 219.279 260.328 217.919L275.832 204.84L209.84 133.501C207.957 131.467 207.109 128.884 207.482 126.322C207.854 123.759 209.418 121.426 211.828 119.837C214.239 118.248 217.299 117.531 220.335 117.846C223.371 118.161 226.134 119.481 228.017 121.515L294.719 193.664C298.054 197.034 299.78 201.333 299.557 205.72C299.335 210.107 297.18 214.266 293.516 217.383L276.592 231.667C275.529 232.571 274.265 233.288 272.874 233.78C271.482 234.271 269.989 234.526 268.481 234.53Z" fill="#1A1A1A"/>
<path d="M31.129 234.531C28.076 234.54 25.1436 233.526 22.9761 231.711L6.06063 217.398C2.39604 214.282 0.241609 210.123 0.019122 205.736C-0.203365 201.349 1.52211 197.05 4.85775 193.68L71.5592 121.531C73.4423 119.496 76.2058 118.176 79.2418 117.862C82.2778 117.547 85.3375 118.263 87.7479 119.853C90.1583 121.442 91.7219 123.775 92.0948 126.337C92.4676 128.9 91.6191 131.482 89.736 133.517L23.7446 204.855L39.2484 217.927C40.8584 219.288 41.9543 221.022 42.3977 222.908C42.8411 224.795 42.6122 226.75 41.7397 228.527C40.8673 230.303 39.3906 231.822 37.4961 232.891C35.6016 233.96 33.3743 234.531 31.0956 234.531H31.129Z" fill="#1A1A1A"/>
<path d="M207.375 204.232H92.0684V224.571H207.375V204.232Z" fill="#FABD05"/>
</svg>
